<mxfile host="app.diagrams.net" agent="Mozilla/5.0 (X11; Ubuntu; Linux x86_64; rv:144.0) Gecko/20100101 Firefox/144.0" version="28.2.8">
  <diagram name="Page-1" id="vXwJi5IaK_bo07NP_8tZ">
    <mxGraphModel dx="2095" dy="806" grid="1" gridSize="10" guides="1" tooltips="1" connect="1" arrows="1" fold="1" page="1" pageScale="1" pageWidth="850" pageHeight="1100" math="0" shadow="0">
      <root>
        <mxCell id="0" />
        <mxCell id="1" parent="0" />
        <mxCell id="YNw-YvU1gMexjjcg9Ci4-23" style="edgeStyle=orthogonalEdgeStyle;rounded=0;orthogonalLoop=1;jettySize=auto;html=1;" edge="1" parent="1">
          <mxGeometry relative="1" as="geometry">
            <mxPoint x="98.5" y="127" as="sourcePoint" />
            <mxPoint x="738" y="127" as="targetPoint" />
          </mxGeometry>
        </mxCell>
        <mxCell id="YNw-YvU1gMexjjcg9Ci4-24" value="&lt;font style=&quot;font-size: 23px;&quot;&gt;Node A&lt;/font&gt;" style="rounded=0;whiteSpace=wrap;html=1;" vertex="1" parent="1">
          <mxGeometry x="360" y="40" width="120" height="50" as="geometry" />
        </mxCell>
        <mxCell id="YNw-YvU1gMexjjcg9Ci4-25" value="&lt;font style=&quot;font-size: 23px;&quot;&gt;Node B&lt;/font&gt;" style="rounded=0;whiteSpace=wrap;html=1;" vertex="1" parent="1">
          <mxGeometry x="678" y="40" width="120" height="50" as="geometry" />
        </mxCell>
        <mxCell id="YNw-YvU1gMexjjcg9Ci4-26" style="edgeStyle=orthogonalEdgeStyle;rounded=0;orthogonalLoop=1;jettySize=auto;html=1;entryX=0;entryY=0.75;entryDx=0;entryDy=0;dashed=1;dashPattern=8 8;endArrow=none;endFill=0;startArrow=classic;startFill=1;" edge="1" parent="1">
          <mxGeometry relative="1" as="geometry">
            <mxPoint x="100" y="167" as="sourcePoint" />
            <mxPoint x="745" y="167" as="targetPoint" />
          </mxGeometry>
        </mxCell>
        <mxCell id="YNw-YvU1gMexjjcg9Ci4-27" style="edgeStyle=orthogonalEdgeStyle;rounded=0;orthogonalLoop=1;jettySize=auto;html=1;startArrow=classic;startFill=1;endArrow=none;endFill=0;" edge="1" parent="1">
          <mxGeometry relative="1" as="geometry">
            <mxPoint x="739" y="338" as="sourcePoint" />
            <mxPoint x="420" y="338" as="targetPoint" />
          </mxGeometry>
        </mxCell>
        <mxCell id="YNw-YvU1gMexjjcg9Ci4-28" value="" style="endArrow=none;html=1;rounded=0;entryX=0.5;entryY=1;entryDx=0;entryDy=0;" edge="1" parent="1" target="YNw-YvU1gMexjjcg9Ci4-24">
          <mxGeometry width="50" height="50" relative="1" as="geometry">
            <mxPoint x="420" y="480" as="sourcePoint" />
            <mxPoint x="650" y="400" as="targetPoint" />
          </mxGeometry>
        </mxCell>
        <mxCell id="YNw-YvU1gMexjjcg9Ci4-29" value="" style="endArrow=none;html=1;rounded=0;entryX=0.5;entryY=1;entryDx=0;entryDy=0;" edge="1" parent="1">
          <mxGeometry width="50" height="50" relative="1" as="geometry">
            <mxPoint x="738" y="480" as="sourcePoint" />
            <mxPoint x="737.5" y="90" as="targetPoint" />
          </mxGeometry>
        </mxCell>
        <mxCell id="YNw-YvU1gMexjjcg9Ci4-30" style="edgeStyle=orthogonalEdgeStyle;rounded=0;orthogonalLoop=1;jettySize=auto;html=1;" edge="1" parent="1">
          <mxGeometry relative="1" as="geometry">
            <mxPoint x="739" y="352" as="sourcePoint" />
            <mxPoint x="739" y="382" as="targetPoint" />
            <Array as="points">
              <mxPoint x="799" y="352" />
              <mxPoint x="799" y="382" />
            </Array>
          </mxGeometry>
        </mxCell>
        <mxCell id="YNw-YvU1gMexjjcg9Ci4-31" value="create network user for client" style="text;html=1;whiteSpace=wrap;strokeColor=none;fillColor=none;align=center;verticalAlign=middle;rounded=0;" vertex="1" parent="1">
          <mxGeometry x="798" y="352" width="112" height="30" as="geometry" />
        </mxCell>
        <mxCell id="YNw-YvU1gMexjjcg9Ci4-32" style="edgeStyle=orthogonalEdgeStyle;rounded=0;orthogonalLoop=1;jettySize=auto;html=1;" edge="1" parent="1">
          <mxGeometry relative="1" as="geometry">
            <mxPoint x="739" y="397" as="sourcePoint" />
            <mxPoint x="739" y="427" as="targetPoint" />
            <Array as="points">
              <mxPoint x="799" y="397" />
              <mxPoint x="799" y="427" />
            </Array>
          </mxGeometry>
        </mxCell>
        <mxCell id="YNw-YvU1gMexjjcg9Ci4-33" value="associate network user with user in DB" style="text;html=1;whiteSpace=wrap;strokeColor=none;fillColor=none;align=center;verticalAlign=middle;rounded=0;" vertex="1" parent="1">
          <mxGeometry x="804" y="397" width="100" height="30" as="geometry" />
        </mxCell>
        <mxCell id="YNw-YvU1gMexjjcg9Ci4-34" value="&lt;font style=&quot;font-size: 23px;&quot;&gt;Client&lt;/font&gt;" style="rounded=0;whiteSpace=wrap;html=1;" vertex="1" parent="1">
          <mxGeometry x="40" y="40" width="120" height="50" as="geometry" />
        </mxCell>
        <mxCell id="YNw-YvU1gMexjjcg9Ci4-35" value="Request to link user in Node B with user in Node A" style="text;html=1;whiteSpace=wrap;strokeColor=none;fillColor=none;align=center;verticalAlign=middle;rounded=0;" vertex="1" parent="1">
          <mxGeometry x="120" y="100" width="280" height="30" as="geometry" />
        </mxCell>
        <mxCell id="YNw-YvU1gMexjjcg9Ci4-36" value="Report that user has authorized the link" style="text;html=1;whiteSpace=wrap;strokeColor=none;fillColor=none;align=center;verticalAlign=middle;rounded=0;" vertex="1" parent="1">
          <mxGeometry x="438" y="309" width="278" height="30" as="geometry" />
        </mxCell>
        <mxCell id="YNw-YvU1gMexjjcg9Ci4-37" value="Redirect user to authorize UI on Node A" style="text;html=1;whiteSpace=wrap;strokeColor=none;fillColor=none;align=center;verticalAlign=middle;rounded=0;" vertex="1" parent="1">
          <mxGeometry x="480" y="133" width="220" height="30" as="geometry" />
        </mxCell>
        <mxCell id="YNw-YvU1gMexjjcg9Ci4-38" style="edgeStyle=orthogonalEdgeStyle;rounded=0;orthogonalLoop=1;jettySize=auto;html=1;entryX=0;entryY=0.75;entryDx=0;entryDy=0;dashed=1;dashPattern=8 8;endArrow=none;endFill=0;startArrow=classic;startFill=1;" edge="1" parent="1">
          <mxGeometry relative="1" as="geometry">
            <mxPoint x="100" y="247" as="sourcePoint" />
            <mxPoint x="425" y="247" as="targetPoint" />
          </mxGeometry>
        </mxCell>
        <mxCell id="YNw-YvU1gMexjjcg9Ci4-39" value="Show authorize UI (includes authorization form)" style="text;html=1;whiteSpace=wrap;strokeColor=none;fillColor=none;align=center;verticalAlign=middle;rounded=0;" vertex="1" parent="1">
          <mxGeometry x="130" y="220" width="283" height="30" as="geometry" />
        </mxCell>
        <mxCell id="YNw-YvU1gMexjjcg9Ci4-40" value="" style="endArrow=none;html=1;rounded=0;entryX=0.5;entryY=1;entryDx=0;entryDy=0;" edge="1" parent="1">
          <mxGeometry width="50" height="50" relative="1" as="geometry">
            <mxPoint x="100" y="480" as="sourcePoint" />
            <mxPoint x="99.5" y="90" as="targetPoint" />
          </mxGeometry>
        </mxCell>
        <mxCell id="YNw-YvU1gMexjjcg9Ci4-42" style="edgeStyle=orthogonalEdgeStyle;rounded=0;orthogonalLoop=1;jettySize=auto;html=1;startArrow=classic;startFill=1;endArrow=none;endFill=0;" edge="1" parent="1">
          <mxGeometry relative="1" as="geometry">
            <mxPoint x="739" y="338" as="sourcePoint" />
            <mxPoint x="420" y="338" as="targetPoint" />
          </mxGeometry>
        </mxCell>
        <mxCell id="YNw-YvU1gMexjjcg9Ci4-43" style="edgeStyle=orthogonalEdgeStyle;rounded=0;orthogonalLoop=1;jettySize=auto;html=1;startArrow=classic;startFill=1;endArrow=none;endFill=0;" edge="1" parent="1">
          <mxGeometry relative="1" as="geometry">
            <mxPoint x="419.5" y="210" as="sourcePoint" />
            <mxPoint x="100.5" y="210" as="targetPoint" />
          </mxGeometry>
        </mxCell>
        <mxCell id="YNw-YvU1gMexjjcg9Ci4-44" value="Request authorize UI on Node A" style="text;html=1;whiteSpace=wrap;strokeColor=none;fillColor=none;align=center;verticalAlign=middle;rounded=0;" vertex="1" parent="1">
          <mxGeometry x="170" y="180" width="180" height="30" as="geometry" />
        </mxCell>
        <mxCell id="YNw-YvU1gMexjjcg9Ci4-45" style="edgeStyle=orthogonalEdgeStyle;rounded=0;orthogonalLoop=1;jettySize=auto;html=1;" edge="1" parent="1">
          <mxGeometry relative="1" as="geometry">
            <mxPoint x="99" y="262" as="sourcePoint" />
            <mxPoint x="99" y="290" as="targetPoint" />
            <Array as="points">
              <mxPoint x="99" y="260" />
              <mxPoint x="39" y="260" />
              <mxPoint x="39" y="290" />
            </Array>
          </mxGeometry>
        </mxCell>
        <mxCell id="YNw-YvU1gMexjjcg9Ci4-46" value="Client fills out authorization form" style="text;html=1;whiteSpace=wrap;strokeColor=none;fillColor=none;align=center;verticalAlign=middle;rounded=0;" vertex="1" parent="1">
          <mxGeometry x="-71" y="263" width="100" height="30" as="geometry" />
        </mxCell>
        <mxCell id="YNw-YvU1gMexjjcg9Ci4-47" style="edgeStyle=orthogonalEdgeStyle;rounded=0;orthogonalLoop=1;jettySize=auto;html=1;startArrow=classic;startFill=1;endArrow=none;endFill=0;" edge="1" parent="1">
          <mxGeometry relative="1" as="geometry">
            <mxPoint x="419.5" y="312" as="sourcePoint" />
            <mxPoint x="100.5" y="312" as="targetPoint" />
          </mxGeometry>
        </mxCell>
        <mxCell id="YNw-YvU1gMexjjcg9Ci4-48" value="Send authorization confirmation" style="text;html=1;whiteSpace=wrap;strokeColor=none;fillColor=none;align=center;verticalAlign=middle;rounded=0;" vertex="1" parent="1">
          <mxGeometry x="170" y="282" width="180" height="30" as="geometry" />
        </mxCell>
        <mxCell id="YNw-YvU1gMexjjcg9Ci4-49" style="edgeStyle=orthogonalEdgeStyle;rounded=0;orthogonalLoop=1;jettySize=auto;html=1;entryX=0;entryY=0.75;entryDx=0;entryDy=0;dashed=1;dashPattern=8 8;endArrow=none;endFill=0;startArrow=classic;startFill=1;" edge="1" parent="1">
          <mxGeometry relative="1" as="geometry">
            <mxPoint x="420" y="450" as="sourcePoint" />
            <mxPoint x="745" y="450" as="targetPoint" />
          </mxGeometry>
        </mxCell>
        <mxCell id="YNw-YvU1gMexjjcg9Ci4-50" style="edgeStyle=orthogonalEdgeStyle;rounded=0;orthogonalLoop=1;jettySize=auto;html=1;entryX=0;entryY=0.75;entryDx=0;entryDy=0;dashed=1;dashPattern=8 8;endArrow=none;endFill=0;startArrow=classic;startFill=1;" edge="1" parent="1">
          <mxGeometry relative="1" as="geometry">
            <mxPoint x="100" y="470" as="sourcePoint" />
            <mxPoint x="425" y="470" as="targetPoint" />
          </mxGeometry>
        </mxCell>
        <mxCell id="YNw-YvU1gMexjjcg9Ci4-51" value="Success/failure response" style="text;html=1;whiteSpace=wrap;strokeColor=none;fillColor=none;align=center;verticalAlign=middle;rounded=0;" vertex="1" parent="1">
          <mxGeometry x="502" y="420" width="150" height="30" as="geometry" />
        </mxCell>
        <mxCell id="YNw-YvU1gMexjjcg9Ci4-52" value="Success/failure response" style="text;html=1;whiteSpace=wrap;strokeColor=none;fillColor=none;align=center;verticalAlign=middle;rounded=0;" vertex="1" parent="1">
          <mxGeometry x="170" y="440" width="150" height="30" as="geometry" />
        </mxCell>
      </root>
    </mxGraphModel>
  </diagram>
</mxfile>
